PathFileType	4	(X/Y/Z)	C:/Users/opensim2020/Desktop/walking_exp_matlab/subject02_walking11_straight_01.trc	
DataRate	CameraRate	NumFrames	NumMarkers	Units	OrigDataRate	OrigDataStartFrame	OrigNumFrames	
100.00	100.00	8	42	mm	100.00	867	267	
Frame#	Time	LFHD			RFHD			LBHD			RBHD			C7			T10			CLAV			STRN			RBAK			LSHO			LUPA			LELB			LFRM			LWRA			LWRB			LFIN			RSHO			RUPA			RELB			RFRM			RWRA			RWRB			RFIN			LASI			RASI			LPSI			RPSI			LTHI			LKNE			LTIB			LANK			LHEE			LTOE			RTHI			RKNE			RTIB			RANK			RHEE			RTOE			*39			*40			*41			
		X1	Y1	Z1	X2	Y2	Z2	X3	Y3	Z3	X4	Y4	Z4	X5	Y5	Z5	X6	Y6	Z6	X7	Y7	Z7	X8	Y8	Z8	X9	Y9	Z9	X10	Y10	Z10	X11	Y11	Z11	X12	Y12	Z12	X13	Y13	Z13	X14	Y14	Z14	X15	Y15	Z15	X16	Y16	Z16	X17	Y17	Z17	X18	Y18	Z18	X19	Y19	Z19	X20	Y20	Z20	X21	Y21	Z21	X22	Y22	Z22	X23	Y23	Z23	X24	Y24	Z24	X25	Y25	Z25	X26	Y26	Z26	X27	Y27	Z27	X28	Y28	Z28	X29	Y29	Z29	X30	Y30	Z30	X31	Y31	Z31	X32	Y32	Z32	X33	Y33	Z33	X34	Y34	Z34	X35	Y35	Z35	X36	Y36	Z36	X37	Y37	Z37	X38	Y38	Z38	X39	Y39	Z39	X40	Y40	Z40	X41	Y41	Z41	X42	Y42	Z42	

134	1.330	1447.89197	-188.83505	1760.14185	1589.05444	-174.21167	1732.68311	1436.57666	-286.64844	1645.52673	1576.37427	-283.13623	1612.51050	1494.15063	-304.21259	1516.25916	1498.38367	-351.36462	1243.06360	1478.13159	-164.14778	1455.10437	1480.37927	-108.40542	1281.83435	1554.50269	-355.54092	1342.87830	1310.93884	-233.24271	1501.83459	1225.57898	-237.66444	1302.15833	1214.65588	-234.12125	1159.76965	1205.51233	-209.50603	1028.99500	1243.62292	-141.14471	912.21783	1207.56067	-183.93881	908.29425	1207.34753	-158.01198	847.09863	1677.83386	-219.37831	1478.89148	1757.78333	-254.19414	1288.69324	1771.55042	-248.11012	1142.17969	1791.45483	-223.82030	1024.78638	1771.97595	-179.17477	896.62024	1803.31042	-226.56595	894.87543	1806.03516	-192.19501	830.59387	1353.93762	-132.94261	973.24689	1606.39502	-105.13797	976.55475	1453.88562	-332.19571	1024.53149	1569.53027	-324.94052	1030.94897	1295.37207	-202.82973	663.24329	1306.85901	-224.66588	479.48135	1320.48840	-375.62970	373.16806	1354.11548	-512.78717	199.37595	1415.00830	-542.43469	195.60051	1314.85181	-441.66718	64.97159	1678.37659	-141.28914	675.81738	1630.15710	-120.88022	467.25580	1632.70862	-150.03320	279.54041	1588.30310	-164.08299	88.44975	1532.52039	-199.11787	36.43469	1600.56299	-11.02001	37.50654	1546.31555	-301.30713	1779.05286	-3357.33179	2845.90161	1034.19751			 
135	1.340	1449.02722	-180.38989	1761.59644	1590.15808	-165.65703	1734.02490	1437.68481	-278.03278	1646.84277	1577.74426	-274.32129	1613.83289	1495.58765	-295.37604	1517.84753	1500.30188	-343.25693	1244.83765	1478.89307	-155.60387	1456.29114	1480.99231	-100.29839	1282.82532	1556.79260	-346.90005	1344.87964	1311.94226	-225.39595	1502.92371	1227.25122	-231.43826	1303.22620	1216.40137	-229.65184	1160.77490	1206.20361	-207.68494	1029.58228	1244.22192	-141.84138	910.95538	1208.04639	-184.70923	908.60126	1207.94287	-160.56195	846.40778	1678.88940	-209.31859	1480.42896	1759.62012	-242.95860	1290.23755	1773.79407	-236.29312	1143.69324	1793.41516	-210.75060	1026.51160	1773.55481	-164.84380	898.78290	1805.06409	-212.27721	896.48706	1808.03015	-176.68007	833.04956	1354.15857	-125.82829	974.94598	1607.88086	-97.02737	977.27753	1456.16162	-324.66458	1026.03137	1571.54480	-317.13068	1032.42871	1295.47742	-189.69594	665.52747	1306.82068	-207.67680	481.79443	1322.33716	-357.33493	374.43094	1355.65369	-492.72147	199.19917	1417.01025	-521.92377	193.59166	1311.50061	-419.50739	67.76615	1678.59241	-135.87878	675.39075	1630.27625	-119.21230	466.74487	1632.80603	-149.73892	279.63525	1588.46973	-163.78520	88.74105	1532.23474	-199.01268	36.43888	1600.58679	-10.87174	37.40892	1547.33093	-292.97849	1780.12183	-3357.27881	2845.86743	1034.26733			 
136	1.350	1450.04150	-172.01350	1762.95947	1591.09753	-157.10883	1735.28210	1438.72632	-269.51038	1648.08044	1578.77795	-265.69543	1615.02393	1497.02905	-286.79990	1519.55920	1502.23816	-335.31158	1246.54443	1479.61572	-147.04495	1457.38721	1481.56482	-92.27534	1283.74731	1558.82068	-337.85440	1346.65247	1312.89111	-217.56721	1503.94409	1228.36157	-226.09766	1304.13721	1217.96094	-225.19293	1161.69690	1207.32849	-205.74646	1030.65576	1244.79138	-142.45297	910.06757	1208.44800	-185.21913	908.92609	1208.63257	-162.80672	845.72229	1679.82593	-199.33862	1481.98230	1761.24377	-231.78947	1291.64844	1775.99756	-224.32524	1145.30042	1795.37781	-197.59119	1028.38538	1775.19531	-150.52869	901.35620	1806.98364	-197.55444	898.32184	1809.83154	-161.06627	835.48157	1354.43994	-118.69122	976.78339	1609.04895	-89.57884	977.87457	1458.20386	-317.25677	1027.61414	1573.29419	-309.51361	1033.82349	1295.54590	-176.72771	668.09723	1306.79053	-191.07895	484.04413	1323.94922	-339.22729	375.10928	1356.79871	-471.84393	197.85368	1418.45850	-500.49698	190.21207	1309.02991	-395.77371	69.37775	1678.74377	-130.59340	674.88177	1630.56714	-117.46666	466.53510	1632.91797	-149.58116	279.77530	1588.17566	-163.58859	88.76726	1532.15039	-199.06166	36.57529	1600.58496	-10.74422	37.28087	1548.41187	-284.52704	1781.27588	-3360.40356	2845.19849	1034.05579			 
137	1.360	1450.88000	-163.62779	1764.16589	1591.97522	-148.59639	1736.50208	1439.65076	-261.04697	1649.22253	1579.85376	-257.17114	1616.04272	1498.31824	-278.12665	1521.00513	1504.14478	-327.32239	1248.16492	1480.28259	-138.52263	1458.40747	1482.22595	-84.30676	1284.58582	1561.42969	-329.79028	1349.11218	1313.84985	-209.71764	1504.87561	1230.02527	-219.82362	1304.88696	1219.45996	-220.91173	1162.68115	1208.54700	-203.96753	1031.30859	1245.14417	-143.26649	909.24652	1208.98694	-185.29198	909.34576	1209.19653	-164.80528	845.51239	1680.65820	-189.20499	1483.71008	1763.25427	-220.24303	1293.41357	1778.12854	-212.21677	1146.93542	1796.82190	-184.23558	1030.08435	1776.47156	-136.04239	903.71997	1808.75684	-182.76616	900.21930	1811.49854	-145.30786	838.03760	1354.94653	-111.47510	978.78729	1610.44177	-82.16366	978.73395	1460.02795	-309.82715	1029.10681	1574.84912	-302.00784	1035.00183	1295.48547	-163.81526	670.43042	1306.75281	-174.90953	486.31805	1325.37598	-321.21048	375.19193	1357.65149	-450.33194	195.41942	1419.50378	-478.82013	186.31004	1307.06726	-371.31769	70.36694	1679.62292	-125.17722	675.15704	1631.12097	-115.48146	466.63113	1633.13293	-149.17854	279.87970	1587.97827	-163.45689	88.81626	1531.85864	-198.39461	36.19657	1600.65625	-10.59688	37.20376	1549.37952	-276.08636	1782.39526	-3357.40576	2845.82886	1034.23254			 
138	1.370	1451.61023	-155.24782	1765.25745	1592.66174	-140.07520	1737.67346	1440.51270	-252.61835	1650.25342	1580.45471	-248.73036	1616.97656	1499.52002	-269.54169	1522.28406	1506.05750	-319.29846	1249.78796	1480.89551	-130.00142	1459.34229	1482.99023	-76.41549	1285.37854	1563.52661	-321.32187	1350.98743	1314.83557	-201.91170	1505.71960	1231.17639	-214.40829	1305.63062	1220.76453	-216.93248	1163.66296	1209.28320	-202.10347	1032.15271	1245.69641	-143.55997	908.72583	1209.35168	-185.85577	909.98767	1209.73499	-166.48079	845.36975	1681.27441	-179.63084	1485.35010	1764.93909	-208.83920	1295.09985	1780.14502	-199.95538	1148.66956	1798.51477	-170.64767	1032.05957	1777.87244	-121.19087	906.35614	1810.50354	-167.83998	902.23474	1812.96191	-129.67422	840.51471	1355.78845	-103.97485	980.93707	1611.80762	-74.85985	979.61853	1461.44092	-302.35162	1030.53284	1576.14453	-294.58298	1036.04211	1295.46106	-151.30292	673.01160	1306.84021	-159.12152	488.50943	1326.58337	-303.19586	374.64191	1358.25208	-428.16367	191.94759	1420.02649	-456.24551	181.19585	1305.70996	-345.52017	70.31560	1679.63623	-121.52271	674.77924	1631.27917	-113.65110	466.45862	1633.30017	-148.42389	279.93967	1587.84155	-163.30586	88.86624	1531.62500	-198.65390	36.36543	1600.65369	-10.51297	37.11289	1550.41296	-267.54715	1783.59949	-3360.31226	2845.22241	1034.18042			 
139	1.380	1452.21387	-146.88528	1766.28015	1593.24377	-131.58301	1738.77368	1441.23022	-244.07458	1651.22815	1581.18237	-240.13620	1618.04321	1500.65503	-261.06616	1523.57751	1507.92151	-311.42432	1251.30811	1481.48291	-121.58981	1460.18835	1483.81079	-68.58782	1286.08167	1565.12109	-313.00879	1352.63647	1315.73853	-194.03999	1506.38989	1232.21204	-208.96671	1306.23743	1221.94995	-213.06050	1164.59521	1210.19763	-200.64067	1033.07690	1246.00220	-143.85023	908.26501	1209.63989	-186.44461	910.56915	1210.06897	-168.09756	845.47791	1682.01685	-169.84373	1487.09985	1766.65918	-197.39442	1296.78943	1782.04700	-187.49744	1150.44592	1800.10437	-156.92088	1034.13269	1779.11584	-106.45715	908.85559	1812.20105	-152.75929	904.29999	1814.61157	-113.49562	843.34808	1356.91052	-96.15737	983.15906	1613.02881	-67.98492	980.28589	1462.48877	-294.93890	1031.86755	1577.15137	-287.27188	1036.93298	1295.48975	-138.81667	675.41162	1306.91321	-143.67377	490.60303	1327.43152	-285.22061	373.46027	1358.64819	-405.15961	187.39763	1420.36060	-433.26459	175.46182	1304.67297	-318.93170	69.65627	1680.17773	-117.93138	675.33582	1631.27112	-112.04525	466.12018	1633.41772	-147.30179	279.97754	1587.76794	-163.26613	88.87466	1531.38232	-198.50418	36.20593	1600.71985	-10.46199	37.03488	1550.87915	-259.22644	1784.41736	-3357.31299	2845.89893	1034.31873			 
140	1.390	1452.77026	-138.49519	1767.21606	1593.80530	-123.11511	1739.81311	1441.92212	-235.64149	1652.09912	1581.65747	-231.57880	1619.11499	1501.63843	-252.46954	1524.78076	1509.66492	-303.47031	1252.69189	1482.08960	-113.21480	1460.97607	1484.71362	-60.81917	1286.73450	1567.04211	-304.21667	1354.34460	1316.57776	-186.22929	1506.98718	1233.18396	-203.60760	1306.92444	1223.03503	-209.36243	1165.43237	1210.64612	-199.21045	1033.73669	1246.18420	-143.19185	908.16052	1209.65918	-187.12968	910.88495	1210.19055	-169.91949	845.70435	1682.59290	-160.46066	1488.78467	1768.03235	-186.27231	1298.37061	1783.88367	-174.97661	1152.20569	1801.47095	-143.08640	1036.14197	1780.27942	-91.47976	911.58020	1813.78882	-137.47777	906.47241	1815.97766	-97.52810	846.00214	1358.38196	-88.57534	985.54303	1614.33374	-61.10760	981.00647	1463.12976	-287.38028	1033.07605	1577.86121	-280.07153	1037.65198	1295.39587	-126.99629	677.92590	1307.10352	-128.45845	492.62076	1327.96484	-267.11737	371.66397	1358.81409	-381.66010	182.10504	1420.38086	-409.30548	168.69540	1304.11743	-291.11960	68.14772	1680.14844	-114.96749	675.29901	1631.47839	-110.21508	465.97888	1633.54431	-146.11996	280.06628	1587.72229	-163.06837	88.95593	1531.44958	-198.42665	36.50839	1600.83691	-10.45098	37.00306	1551.43335	-250.78596	1785.34082	-3360.33398	2845.28174	1034.11353			 
141	1.400	1453.13562	-130.19139	1768.08228	1594.20264	-114.59393	1740.77869	1442.49634	-227.21886	1652.86780	1582.41138	-223.08681	1619.90710	1502.53174	-244.03018	1525.93860	1511.31775	-295.66000	1253.97302	1482.58215	-104.98665	1461.67737	1485.68774	-53.04302	1287.28894	1568.76855	-296.49698	1356.05591	1317.32666	-178.46805	1507.42175	1234.30103	-198.20439	1307.64612	1224.02710	-205.85500	1166.26599	1211.88354	-197.36365	1034.34180	1246.65112	-143.79488	907.83649	1210.02881	-187.17038	911.40417	1210.47717	-170.68806	845.90302	1683.05798	-151.33473	1490.39404	1769.88867	-174.89557	1300.28906	1785.34985	-162.68806	1153.79004	1802.94324	-129.18327	1038.30518	1781.19800	-76.82230	914.15515	1815.32788	-122.17796	908.69073	1817.17896	-81.55273	848.86261	1360.30396	-80.81004	987.75000	1615.71594	-54.30555	981.59467	1463.44287	-279.83603	1034.19348	1578.27637	-272.84946	1038.16077	1295.30579	-115.39848	680.34869	1307.37830	-113.58571	494.40152	1328.23059	-248.91864	369.41040	1358.78137	-357.37070	176.09024	1419.91882	-385.00107	161.57878	1303.69604	-262.60532	66.05889	1679.88379	-112.23365	674.68842	1631.67297	-108.36309	465.79153	1633.61792	-144.95023	280.08197	1587.71094	-162.75929	89.16160	1531.34448	-198.62265	36.61246	1600.92822	-10.48001	36.90814	1552.16150	-242.27654	1786.38098	-3357.58105	2845.91553	1034.09961			 
